<svg width="115" height="114" viewBox="0 0 115 114" fill="none" xmlns="http://www.w3.org/2000/svg">
<path d="M53.8136 41.4931C41.1894 41.6541 0 43.2392 0 56.878C0 71.5405 47.5624 72.283 57.0981 72.283C66.6339 72.283 114.196 71.5405 114.196 56.878C114.196 50.3763 105.614 47.399 99.1601 45.7256C92.1204 43.901 82.6112 42.5762 72.1132 41.9287C72.2848 44.7074 72.4055 47.5601 72.4786 50.4613C91.6642 51.7078 101.812 54.9311 104.932 56.8902C100.706 59.6083 84.4163 63.7824 57.0981 63.7824C29.7312 63.7824 13.4337 59.5928 9.24116 56.8747C13.2211 54.2736 28.1299 50.3212 53.9232 49.9924C56.2798 49.9627 58.1645 48.0355 58.1346 45.6892C58.1036 43.3595 56.2 41.4931 53.869 41.4931C53.8501 41.4931 53.8324 41.4931 53.8136 41.4931" fill="url(#paint0_linear_528_51979)"/>
<path d="M41.6333 56.8778C41.6333 66.3745 42.3786 113.755 57.098 113.755C63.6227 113.755 66.6116 105.212 68.2904 98.7849C70.1242 91.7691 71.4553 82.2879 72.1053 71.8216C68.9426 72.0091 66.0191 72.124 63.5396 72.1901C62.2905 91.3081 59.0536 101.418 57.0869 104.525C54.3572 100.316 50.1657 84.0903 50.1657 56.8778C50.1657 29.6366 54.366 13.4056 57.0946 9.21598C59.7136 13.282 63.7965 28.7773 64.0213 54.7389C64.0413 57.0731 65.9471 58.9517 68.2871 58.9517H68.3236C70.6801 58.9318 72.5737 57.0124 72.5538 54.6661C72.4342 40.7835 71.1817 27.7769 69.029 18.0408C66.307 5.73237 62.5165 0.000623394 57.098 0.000623394C42.3786 0.000623394 41.6333 47.379 41.6333 56.8778" fill="url(#paint1_linear_528_51979)"/>
<defs>
<linearGradient id="paint0_linear_528_51979" x1="-0.000387586" y1="56.8879" x2="114.197" y2="56.8879" gradientUnits="userSpaceOnUse">
<stop stop-color="#45C3F3"/>
<stop offset="0.5" stop-color="#1671C2"/>
<stop offset="0.959876" stop-color="#2056AE"/>
<stop offset="1" stop-color="#2056AE"/>
</linearGradient>
<linearGradient id="paint1_linear_528_51979" x1="57.0934" y1="113.754" x2="57.0934" y2="-0.000167649" gradientUnits="userSpaceOnUse">
<stop stop-color="#2056AE"/>
<stop offset="0.25" stop-color="#2056AE"/>
<stop offset="0.280093" stop-color="#2056AE"/>
<stop offset="0.625" stop-color="#A32B9B"/>
<stop offset="1" stop-color="#ED1443"/>
</linearGradient>
</defs>
</svg>
